<svg id="图层_1" data-name="图层 1" xmlns="http://www.w3.org/2000/svg" viewBox="0 0 512 512"><defs><style>.cls-1{fill:#fff;}.cls-2{fill:#80bd01;}</style></defs><title>logo</title><rect class="cls-1" width="512" height="512"/><path class="cls-2" d="M256,459.9a32.1,32.1,0,0,1-15.7-4.2l-49.9-29.5c-7.4-4.2-3.8-5.7-1.4-6.5,10-3.5,12-4.3,22.6-10.3a3.8,3.8,0,0,1,3.7.3l38.3,22.7a4.9,4.9,0,0,0,4.7,0l149.4-86.2a4.6,4.6,0,0,0,2.2-4V169.7a4.7,4.7,0,0,0-2.3-4.1L258.3,79.4a4.7,4.7,0,0,0-4.6,0L104.4,165.6a4.9,4.9,0,0,0-2.4,4.1V342.2a4.3,4.3,0,0,0,2.4,3.9l40.9,23.7c22.2,11.1,35.8-2,35.8-15.1V184.4a4.3,4.3,0,0,1,4.3-4.3h19a4.3,4.3,0,0,1,4.3,4.3V354.7c0,29.6-16.1,46.6-44.2,46.6-8.7,0-15.5,0-34.4-9.3L90.9,369.4a31.5,31.5,0,0,1-15.7-27.2V169.7a31.5,31.5,0,0,1,15.7-27.2L240.3,56.2a32.5,32.5,0,0,1,31.4,0l149.4,86.3a31.5,31.5,0,0,1,15.7,27.2V342.2a31.5,31.5,0,0,1-15.7,27.2L271.7,455.7a32.1,32.1,0,0,1-15.7,4.2" transform="translate(0 0)"/><path class="cls-2" d="M297.4,338.8c-65.3,0-79-30-79-55.2a4.3,4.3,0,0,1,4.3-4.3H242a4.2,4.2,0,0,1,4.3,3.6c2.9,19.7,11.6,29.6,51.1,29.6,31.5,0,44.9-7.1,44.9-23.8,0-9.6-3.8-16.8-52.7-21.6-40.9-4-66.2-13-66.2-45.7,0-30.2,25.4-48.2,68.1-48.2,47.8,0,71.5,16.6,74.5,52.3a4.4,4.4,0,0,1-4.3,4.7H342.3a4.3,4.3,0,0,1-4.2-3.4c-4.6-20.7-16-27.3-46.7-27.3-34.3,0-38.3,12-38.3,21,0,10.8,4.7,14,51.1,20.1s67.7,14.7,67.7,47-27.1,51.2-74.5,51.2" transform="translate(0 0)"/></svg>