<?xml version="1.0" encoding="utf-8"?>
<svg x="0px" y="0px" viewBox="0 0 80 80" width="512" height="512" xmlns="http://www.w3.org/2000/svg">
  <rect width="80" height="80" fill="#444" />
  <path d="M 39.741 72.872 C 38.882 72.872 38.025 72.647 37.273 72.212 L 29.42 67.566 C 28.248 66.91 28.819 66.678 29.207 66.543 C 30.77 66 31.088 65.875 32.758 64.929 C 32.931 64.83 33.162 64.867 33.342 64.974 L 39.375 68.556 C 39.594 68.677 39.901 68.677 40.103 68.556 L 63.625 54.979 C 63.844 54.854 63.983 54.603 63.983 54.343 L 63.983 27.196 C 63.983 26.931 63.843 26.683 63.619 26.549 L 40.106 12.984 C 39.889 12.857 39.6 12.857 39.382 12.984 L 15.878 26.552 C 15.649 26.683 15.505 26.938 15.505 27.196 L 15.505 54.342 C 15.505 54.602 15.649 54.848 15.876 54.971 L 22.318 58.693 C 25.814 60.441 27.956 58.383 27.956 56.314 L 27.956 29.514 C 27.956 29.135 28.261 28.836 28.639 28.836 L 31.622 28.836 C 31.995 28.836 32.304 29.135 32.304 29.514 L 32.304 56.314 C 32.304 60.98 29.763 63.656 25.339 63.656 C 23.979 63.656 22.909 63.656 19.921 62.184 L 13.753 58.633 C 12.229 57.751 11.286 56.105 11.286 54.342 L 11.286 27.196 C 11.286 25.433 12.228 23.786 13.753 22.909 L 37.274 9.317 C 38.763 8.476 40.742 8.476 42.218 9.317 L 65.737 22.909 C 67.261 23.791 68.209 25.433 68.209 27.196 L 68.209 54.342 C 68.209 56.105 67.262 57.745 65.737 58.633 L 42.218 72.212 C 41.466 72.647 40.611 72.872 39.741 72.872" fill="#80bd01"/>
  <path d="M 47.007 54.171 C 36.713 54.171 34.558 49.446 34.558 45.484 C 34.558 45.107 34.861 44.806 35.238 44.806 L 38.279 44.806 C 38.618 44.806 38.902 45.049 38.954 45.381 C 39.413 48.478 40.782 50.039 47.008 50.039 C 51.962 50.039 54.072 48.918 54.072 46.289 C 54.072 44.774 53.474 43.649 45.773 42.895 C 39.336 42.257 35.357 40.835 35.357 35.687 C 35.357 30.942 39.357 28.111 46.064 28.111 C 53.599 28.111 57.327 30.726 57.8 36.338 C 57.818 36.531 57.748 36.717 57.619 36.861 C 57.49 36.996 57.311 37.078 57.121 37.078 L 54.069 37.078 C 53.752 37.078 53.473 36.853 53.408 36.547 C 52.677 33.289 50.895 32.248 46.063 32.248 C 40.653 32.248 40.024 34.133 40.024 35.545 C 40.024 37.256 40.766 37.754 48.071 38.721 C 55.3 39.676 58.733 41.03 58.733 46.111 C 58.733 51.236 54.459 54.171 47.007 54.171" fill="#80bd01"/>
</svg>
